<svg id="Camada_1" data-name="Camada 1" xmlns="http://www.w3.org/2000/svg" viewBox="0 0 56 56"><defs><style>.cls-1{fill:#fff;}.cls-2{fill:#9d9d9c;}.cls-3{fill:#13a538;}</style></defs><path class="cls-1" d="M17.1,18.27h0"/><path class="cls-1" d="M19.48,12.6q-1.11,0-2.28,0h-.12c.83,0,1.64,0,2.42,0h0"/><path class="cls-1" d="M19.48,12.6l.51,0-.51,0"/><path class="cls-2" d="M17,33.62v0"/><polygon class="cls-3" points="55.16 3.12 4.59 26.81 55.16 53.75 55.16 3.12"/><polyline class="cls-2" points="29.23 19.78 29.23 19.77 29.23 19.78 29.23 19.78"/><polygon class="cls-2" points="29.23 19.79 29.23 19.78 29.23 19.79 29.23 19.79"/><path class="cls-1" d="M27.4,20.57h0v-.38a35.34,35.34,0,0,0-9-1h-.55c-.92,0-1.88,0-2.76,0v5.9H18.3a74.69,74.69,0,0,1,9.12.5s0-3.46,0-5.07"/><path class="cls-1" d="M17,18.27s1.61,0,3.52.06c3.59.13,8.66.61,8.71,1.42V14.06h0c0-.3-.68-.57-1.85-.8h0c-.27-.06-.56-.11-.88-.16h0c-1.33-.2-3.22-.29-5.37-.45-.36,0-.73-.05-1.12-.05h-.48c-.79,0-1.6,0-2.43,0H17Z"/><path class="cls-1" d="M32.36,27V41.73c0-1-6.89-1.89-15.39-1.89H13.53V25.16S26.33,24.2,32.36,27Z"/><path class="cls-3" d="M33.21,27a.85.85,0,0,0-.49-.77c-4.59-2.16-12.73-2.21-16.8-2.08V20.08h2.37a35.21,35.21,0,0,1,8.79.9l.73.22a.9.9,0,0,0,.46,0,2.3,2.3,0,0,0,1.65-1.14.7.7,0,0,0,.13-.32v-5.7c0-.86-.9-1.24-1.91-1.48a12.51,12.51,0,0,0-3.51-8.31,11.79,11.79,0,0,0-1-.82h0l0,0h0A11.07,11.07,0,0,0,17,1.2,11.31,11.31,0,0,0,5.73,12.59h0c-1,.25-1.84.64-1.85,1.47v5.78c.08.93,1.27,1.23,1.85,1.37h0V24.9c-4.15.52-5,1.22-5,2.14V41.73a.82.82,0,0,0,.19.53c.36.66,1.55,1.18,4.81,1.6V53.94a.87.87,0,0,0,.86.86H28.24a.85.85,0,0,0,.85-.85V43.74c3.33-.51,4.1-1.15,4.12-2V27Zm-1.7.56V40.29c-3-1-9.18-1.28-13.72-1.31V33.62c0-3.06,0-6.34,0-7.76C21.81,25.83,27.79,26.07,31.51,27.6Zm-3.16-9.26a19,19,0,0,0-2.9-.52c-1.52-.19-3.44-.31-5.7-.36l-1.93,0,0-4,1.63,0h.18a4.58,4.58,0,0,0,.51,0c.24,0,2.62.17,4.94.33l1.25.14.87.15a6.19,6.19,0,0,1,1.17.32Zm-1.9-6.14-1.24-.09c-.74-.07-1.55-.14-2.47-.2l-1.6-.11c-.39,0-.75-.05-1.18-.05h-.41l-.05,0a4,4,0,0,1-2.79-2.43s0-.11,0-.16A3.52,3.52,0,0,1,16.49,8a3.91,3.91,0,0,1,4-3.83,4,4,0,0,1,2.19.64,10.28,10.28,0,0,1,.81.67A10.93,10.93,0,0,1,26.45,12.2Zm.89,30.45,0,10.44H15.91V41.69C26,41.69,27.34,42.65,27.34,42.65Z"/></svg>