<svg width="181" height="67" viewBox="0 0 181 67" fill="none" xmlns="http://www.w3.org/2000/svg">
<path d="M75.8749 5.93864V14.2375H83.7412V18.0063H75.8749V30.0358H72.2855V2.16989H87.5597V5.93864H75.8749Z" fill="#13A538"/>
<path d="M105.66 30.0358L102.223 20.2142H93.4785L90.0418 30.0358H86.0323L95.7314 2.20795H99.9319L109.631 30.0358H105.66ZM97.8698 7.61364L94.6622 16.7119H101.001L97.8698 7.61364Z" fill="#13A538"/>
<path d="M129.297 30.0358H124.332L116.314 20.5188V30.0358H112.609V2.20795H119.788C121.01 2.20795 122.194 2.43636 123.263 2.89318C124.332 3.35 125.287 3.99716 126.089 4.83466C126.891 5.71023 127.54 6.7 127.998 7.80398C128.457 8.90795 128.686 10.0881 128.686 11.3063C128.686 12.4864 128.495 13.5903 128.113 14.6182C127.731 15.646 127.158 16.5597 126.433 17.3972C125.707 18.1966 124.867 18.8818 123.874 19.3767C122.881 19.9097 121.889 20.2142 120.819 20.3284L129.297 30.0358ZM116.314 5.9767V16.6358H119.788C120.476 16.6358 121.163 16.4835 121.812 16.217C122.461 15.9506 123.034 15.5699 123.492 15.075C123.951 14.5801 124.332 14.0091 124.6 13.3619C124.867 12.7148 124.982 12.0295 124.982 11.3063C124.982 9.89773 124.485 8.64148 123.454 7.5375C122.996 7.08068 122.423 6.7 121.774 6.39545C121.125 6.12898 120.476 5.9767 119.75 5.9767H116.314V5.9767Z" fill="#13A538"/>
<path d="M140.409 29.1602C138.728 28.4369 137.239 27.4472 135.941 26.1148C134.643 24.8205 133.65 23.3358 132.924 21.6227C132.199 19.9097 131.817 18.0824 131.817 16.179C131.817 14.2756 132.161 12.4864 132.886 10.8114C133.612 9.13636 134.604 7.61364 135.941 6.31932C137.239 5.025 138.728 4.03523 140.409 3.31193C142.089 2.58864 143.884 2.20795 145.793 2.20795C147.702 2.20795 149.497 2.58864 151.215 3.31193C152.934 4.03523 154.423 5.025 155.721 6.31932C157.019 7.61364 158.012 9.09829 158.738 10.8114C159.463 12.5244 159.845 14.3136 159.845 16.217C159.845 18.1205 159.463 19.9097 158.738 21.6608C158.012 23.3739 157.019 24.8966 155.721 26.1528C154.423 27.4472 152.934 28.4369 151.215 29.1602C149.497 29.8835 147.702 30.2642 145.793 30.2642C143.884 30.2261 142.089 29.8835 140.409 29.1602ZM141.86 6.8142C140.6 7.34716 139.53 8.07045 138.576 9.02216C137.621 9.97386 136.896 11.0778 136.361 12.296C135.826 13.5523 135.597 14.8466 135.597 16.217C135.597 17.6256 135.865 18.958 136.399 20.2142C136.934 21.4705 137.659 22.5744 138.576 23.4881C139.53 24.4398 140.638 25.1631 141.86 25.696C143.12 26.229 144.418 26.4574 145.793 26.4574C147.168 26.4574 148.466 26.1909 149.726 25.696C150.986 25.1631 152.055 24.4398 153.01 23.4881C153.926 22.5744 154.652 21.4705 155.187 20.2142C155.721 18.958 155.988 17.6256 155.988 16.217C155.988 14.8466 155.721 13.5523 155.225 12.296C154.69 11.0398 153.965 9.97386 153.01 9.02216C152.055 8.07045 150.948 7.34716 149.726 6.8142C148.466 6.28125 147.168 6.05284 145.793 6.05284C144.418 6.01477 143.12 6.28125 141.86 6.8142Z" fill="#13A538"/>
<path d="M163.625 30.0358V2.16988H167.253V26.267H175.654V30.0358H163.625Z" fill="#13A538"/>
<path d="M86.185 65.1347H81.9464L72.2854 37.2687H76.2949L84.0848 59.6909L91.9128 37.2687H95.8459L86.185 65.1347Z" fill="#13A538"/>
<path d="M99.4354 65.1727V37.3068H114.71V41.0756H103.063V49.5267H110.891V52.9528H103.063V61.3659H114.71V65.1727H99.4354Z" fill="#13A538"/>
<path d="M135.597 65.1727H130.633L122.614 55.6557V65.1727H118.91V37.3449H126.089C127.311 37.3449 128.495 37.5733 129.564 38.0301C130.633 38.4869 131.588 39.1341 132.39 39.9716C133.192 40.8472 133.841 41.8369 134.299 42.9409C134.757 44.0449 134.986 45.225 134.986 46.4432C134.986 47.6233 134.795 48.7273 134.413 49.7551C134.032 50.783 133.459 51.6966 132.733 52.5341C132.008 53.3335 131.168 54.0187 130.175 54.5136C129.182 55.0466 128.189 55.3511 127.12 55.4653L135.597 65.1727ZM122.614 41.1136V51.7727H126.089C126.776 51.7727 127.464 51.6204 128.113 51.354C128.762 51.0875 129.335 50.7068 129.793 50.2119C130.251 49.717 130.633 49.146 130.9 48.4989C131.168 47.8517 131.282 47.1665 131.282 46.4432C131.282 45.0347 130.786 43.7784 129.755 42.6744C129.297 42.2176 128.724 41.8369 128.075 41.5324C127.425 41.2659 126.738 41.1136 126.051 41.1136H122.614Z" fill="#13A538"/>
<path d="M139.378 65.1727V37.2687H146.595C148.466 37.2687 150.261 37.6114 151.941 38.3347C153.621 39.058 155.11 40.0477 156.408 41.342C157.669 42.6364 158.661 44.1591 159.387 45.8341C160.112 47.5091 160.456 49.3364 160.456 51.2017C160.456 53.1051 160.112 54.8943 159.387 56.5693C158.661 58.2443 157.669 59.729 156.408 61.0233C155.11 62.3176 153.621 63.3455 151.941 64.0688C150.261 64.792 148.466 65.1347 146.595 65.1347H139.378V65.1727ZM143.158 41.0375V61.404H146.595C147.931 61.404 149.23 61.1375 150.49 60.6045C151.75 60.0716 152.819 59.3483 153.735 58.4347C154.652 57.483 155.377 56.379 155.912 55.1608C156.447 53.9045 156.676 52.6102 156.676 51.2398C156.676 49.8693 156.408 48.575 155.912 47.3188C155.377 46.0625 154.69 44.9966 153.735 44.0449C152.819 43.1312 151.712 42.408 150.49 41.875C149.23 41.342 147.931 41.0756 146.595 41.0756H143.158V41.0375Z" fill="#13A538"/>
<path d="M164.198 65.1727V37.3068H179.511V41.0756H167.864V49.5267H175.692V52.9528H167.864V61.3659H179.511V65.1727H164.198Z" fill="#13A538"/>
<path d="M22.2622 16.7119C21.3839 16.6739 20.5057 16.6739 19.5892 16.6739C19.551 16.6739 19.4746 16.6739 19.4365 16.6739C20.4293 16.6739 21.3457 16.6739 22.2622 16.7119Z" fill="white"/>
<path d="M22.2622 16.7119C22.2622 16.7119 22.6823 16.7119 22.8732 16.75C23.2932 16.75 22.5295 16.7119 22.2622 16.7119Z" fill="white"/>
<path d="M7.25525 25.5818C7.40799 25.5437 7.59892 25.5057 7.78985 25.4676C7.9044 25.4295 8.01896 25.4295 8.13352 25.3915H8.09533C7.75166 25.4676 7.48436 25.5057 7.25525 25.5818Z" fill="#9D9D9C"/>
<path d="M8.09534 25.3915C8.36264 25.3153 8.66812 25.2773 8.97361 25.2392C9.20272 25.2011 9.43183 25.1631 9.66095 25.125C9.20272 25.2011 8.78268 25.2773 8.36264 25.3534C8.28626 25.3534 8.17171 25.3534 8.09534 25.3915Z" fill="#3AAA35"/>
<path d="M17.1071 31.3682C16.3434 31.3682 15.5797 31.4062 14.8542 31.4062L17.1071 31.3682Z" fill="#3AAA35"/>
<path d="M7.78986 25.4676C8.17171 25.3915 8.55357 25.3153 9.0118 25.2392C8.70631 25.2773 8.40083 25.3534 8.13353 25.3915C7.98078 25.3915 7.86623 25.4295 7.78986 25.4676Z" fill="#3AAA35"/>
<path d="M14.8542 24.592C14.9306 24.592 15.007 24.592 15.0833 24.592C14.6633 24.6301 14.2814 24.6301 13.8614 24.6682C14.2051 24.6301 14.5105 24.592 14.8542 24.592Z" fill="#9D9D9C"/>
<path d="M10.3483 25.0108C10.1192 25.0489 9.85192 25.0869 9.6228 25.125C9.8901 25.0489 10.1192 25.0108 10.3483 25.0108Z" fill="#9D9D9C"/>
<path d="M11.112 24.8966C10.8447 24.9347 10.6156 24.9727 10.3483 25.0108C10.6156 24.9727 10.8447 24.9347 11.112 24.8966Z" fill="#9D9D9C"/>
<path d="M7.25525 25.5818C7.52255 25.5057 7.78985 25.4676 8.05715 25.3915C7.75166 25.4676 7.48436 25.5057 7.25525 25.5818Z" fill="#9D9D9C"/>
<path d="M64.2664 2.01761H7.17889V64.9443H64.2664V2.01761Z" fill="#005D9A"/>
<path d="M64.2283 2.01761L5.07867 33.5L64.2283 64.9443V2.01761Z" fill="#13A538"/>
<path d="M31.5414 26.0006C31.5414 25.8483 31.5414 25.696 31.5414 25.5438C29.3266 24.8966 25.4317 24.4398 20.9639 24.4398C20.8494 24.4398 20.7348 24.4398 20.6203 24.4398C20.5439 24.4398 20.4293 24.4398 20.353 24.4398C19.2838 24.4398 18.1382 24.4398 17.1072 24.4778V31.3682C17.1454 31.3682 17.2981 31.3682 17.3363 31.3682C17.7181 31.3682 18.7873 31.3682 19.3983 31.3682C19.6656 31.3682 19.9711 31.3682 20.2384 31.3682C20.4675 31.3682 20.6584 31.3682 20.8876 31.3682C24.9734 31.3682 28.7538 31.5966 31.5414 31.9392C31.5795 31.9011 31.5414 27.8659 31.5414 26.0006Z" fill="#95C11F"/>
<path d="M17.1071 24.4778C16.4198 24.5159 15.7325 24.5159 15.0833 24.554C15.0069 24.554 14.9306 24.554 14.8542 24.554C14.5487 24.554 14.205 24.592 13.8995 24.6301C13.5177 24.6682 13.1358 24.7063 12.754 24.7063C12.3721 24.7443 12.0284 24.7824 11.6466 24.8205C11.4557 24.8205 11.3029 24.8585 11.112 24.8966C10.8447 24.9347 10.6156 24.9727 10.3483 25.0108C10.1192 25.0489 9.85187 25.0869 9.62275 25.125C9.39364 25.1631 9.16453 25.2011 8.93541 25.2392C8.51537 25.3153 8.09533 25.3915 7.71347 25.4676C7.52254 25.5057 7.29343 25.5818 7.14069 25.6199C7.14069 25.658 7.14069 31.9392 7.14069 31.9392C9.27908 31.7108 11.9139 31.5205 14.816 31.4443C15.5415 31.4063 16.3052 31.4063 17.069 31.4063V26.8L17.1071 24.4778Z" fill="#13A538"/>
<path d="M17.1072 49.6409C16.4198 49.6409 15.7325 49.679 15.0833 49.679C15.007 49.679 14.9306 49.679 14.816 49.679C12.143 49.7551 9.66096 50.0216 7.63712 50.25C7.48438 50.2881 7.21708 50.2881 7.17889 50.2881V53.4477V64.9063H17.1072V49.6409Z" fill="#13A538"/>
<path d="M19.3219 48.4608C19.3219 46.6335 19.3219 46.6335 19.3219 44.1972C19.3219 44.121 19.3219 44.0449 19.3219 43.9687V41.1898C19.3219 36.6597 19.3219 31.6727 19.3219 31.3301C18.5964 31.3301 17.8327 31.3301 17.1453 31.3301L14.8924 31.3682C12.0285 31.4443 9.43185 31.6347 7.29345 31.8631C3.62763 32.2818 1.33649 32.8528 1.33649 33.5V50.6307C1.5656 48.6892 18.8255 48.3847 19.3219 48.4608Z" fill="#13A538"/>
<path d="M7.67528 50.2881C9.73731 50.0597 12.1812 49.7932 14.8542 49.717C14.9306 49.717 15.0069 49.717 15.1215 49.717C15.7706 49.679 16.458 49.679 17.1453 49.679C17.8709 49.679 18.5964 49.679 19.3601 49.679C19.5128 49.679 19.7038 49.679 19.8565 49.679C20.0474 49.679 20.2384 49.679 20.4293 49.679C24.897 49.6409 28.8683 50.0216 32.1141 50.3261C32.2668 50.3261 32.3432 50.3642 32.496 50.3642V52.2295C35.4744 51.8489 37.3837 51.3159 37.3837 50.7068C37.3837 49.5267 29.3265 48.4989 19.3983 48.4989C10.8065 48.4989 1.37465 49.3364 1.41284 50.7068C1.41284 51.354 3.58942 51.925 7.17887 52.3437V50.4023C7.29343 50.3261 7.56073 50.2881 7.67528 50.2881Z" fill="#005D9A"/>
<path d="M22.224 16.7119C19.6656 16.179 17.7563 14.0091 17.7563 11.3824C17.7563 8.375 20.2766 5.90057 23.4078 5.90057C24.5534 5.90057 25.6226 6.24318 26.539 6.8142C24.5152 5.29148 22.0331 4.41591 19.3219 4.41591C12.6013 4.41591 7.17889 9.89773 7.17889 16.6358C7.17889 16.6739 7.17889 16.6739 7.17889 16.7119V17.5114H7.21708C9.77552 17.0165 14.2432 16.6739 19.3219 16.6739C19.3601 16.6739 19.3983 16.6739 19.3983 16.6739C19.4365 16.6739 19.5129 16.6739 19.551 16.6739C20.4675 16.6739 21.384 16.6739 22.224 16.7119Z" fill="#13A538"/>
<path d="M19.3219 23.3358L19.2838 16.6739C14.2051 16.6739 9.77553 17.0165 7.25527 17.5114C5.8424 17.7778 5.00232 18.1205 5.00232 18.4631V25.125C5.0405 24.0972 11.4557 23.3358 19.3219 23.3358Z" fill="#13A538"/>
<path d="M7.17889 25.6199C7.44618 25.5438 7.75167 25.4295 8.05716 25.3915C8.17171 25.3534 8.24808 25.3534 8.36264 25.3153C8.78268 25.2392 9.20272 25.1631 9.66095 25.0869C9.89007 25.0489 10.1192 25.0108 10.3865 24.9727C10.6538 24.9347 10.8829 24.8966 11.1502 24.8966C11.3411 24.8585 11.4939 24.8585 11.6848 24.8205C12.0285 24.7824 12.4103 24.7443 12.7922 24.7062C13.174 24.6682 13.5559 24.6301 13.9377 24.6301C14.3196 24.592 14.7396 24.592 15.1597 24.554C15.8088 24.5159 16.4962 24.4778 17.1835 24.4778C18.0236 24.4398 18.711 24.4398 19.4747 24.4398C19.8565 24.4398 20.2384 24.4398 20.6202 24.4398C20.7348 24.4398 20.8494 24.4398 20.9639 24.4398C25.3934 24.4398 29.2884 24.8585 31.5413 25.5437C31.5413 25.658 31.5413 25.8102 31.5413 26.0006C31.8468 25.9244 32.1523 25.8864 32.3814 25.8102C33.2215 25.5818 33.6797 25.3534 33.7179 25.0869C33.6797 24.1352 27.3409 23.3739 19.5129 23.3739C19.4747 23.3739 19.4365 23.3739 19.3601 23.3739C11.4557 23.3739 5.11686 24.1733 5.07867 25.0869C5.11686 25.3534 5.61327 25.5818 6.49154 25.8102C6.72066 25.8864 6.94977 25.9244 7.25526 25.9625C7.17889 25.8864 7.17889 25.658 7.17889 25.6199Z" fill="#005D9A"/>
<path d="M17.7563 11.3443C17.7563 13.971 19.6656 16.179 22.2241 16.6739C22.4914 16.6739 22.7587 16.7119 22.9878 16.7119C23.2169 16.7119 28.7156 17.0165 30.3958 17.283C30.7777 17.3591 31.1213 17.3972 31.465 17.4733V16.6358C31.465 13.0955 29.9758 9.93579 27.6082 7.68977C27.2646 7.38523 26.9209 7.08068 26.539 6.8142C25.6608 6.24318 24.5534 5.90057 23.4078 5.90057C20.3148 5.90057 17.7563 8.33693 17.7563 11.3443Z" fill="white"/>
<path d="M19.3219 23.3358C19.3219 23.3358 21.193 23.3358 23.446 23.4119C27.6464 23.5642 33.5651 24.1352 33.6415 25.0869V18.3869C33.6415 18.0443 32.8396 17.7398 31.4649 17.4352H31.4268C31.1213 17.3591 30.7776 17.321 30.3957 17.2449C28.8301 17.0165 26.6154 16.9023 24.1333 16.7119C23.7133 16.6739 23.2932 16.6739 22.835 16.6739C22.6441 16.6739 22.4531 16.6739 22.2622 16.6739C21.3457 16.6358 20.3911 16.6358 19.4365 16.6358C19.3983 16.6358 19.3601 16.6358 19.3219 16.6358V23.3358Z" fill="white"/>
<path d="M19.3219 41.2278C19.3219 42.1795 19.3219 43.1312 19.3219 44.0068V48.4989H19.3601C29.2884 48.4989 37.3455 49.4886 37.3455 50.7068V33.5761C37.3455 32.929 35.0544 32.396 31.4649 31.9392C28.4865 31.5585 24.5151 31.3301 20.162 31.3682C19.8565 31.3682 19.5892 31.3682 19.3219 31.3682V41.2278Z" fill="white"/>
<path d="M32.5342 64.9443V53.4858V52.3057V52.1915V50.3261C32.3814 50.3261 32.2287 50.2881 32.076 50.2881C28.9447 49.9835 24.8971 49.6028 20.3911 49.6409C20.2002 49.6409 20.0093 49.6409 19.8184 49.6409C19.6656 49.6409 19.4747 49.6409 19.3219 49.6409C18.5582 49.6409 17.8327 49.6409 17.1072 49.6409V64.9062L32.5342 64.9443ZM24.7825 63.3835V63.4597C24.7825 63.4597 24.7825 63.4597 24.7825 63.4216C24.7825 63.3835 24.7825 63.3835 24.7825 63.3835Z" fill="white"/>
</svg>
