<?xml version="1.0" encoding="utf-8"?>
<!-- Generator: Adobe Illustrator 24.2.0, SVG Export Plug-In . SVG Version: 6.00 Build 0)  -->
<svg version="1.1" id="Camada_1" xmlns="http://www.w3.org/2000/svg" xmlns:xlink="http://www.w3.org/1999/xlink" x="0px" y="0px"
	 viewBox="0 0 554 91" style="enable-background:new 0 0 554 91;" xml:space="preserve">
<style type="text/css">
	.st0{fill:#3AAA35;}
</style>
<polygon class="st0" points="18.7,22.7 18.7,41.7 36.6,41.7 36.6,50.4 18.7,50.4 18.7,77.9 10.4,77.9 10.4,14.1 45.4,14.1 
	45.4,22.7 "/>
<path class="st0" d="M90.2,77.9l-7.9-22.5h-20l-7.9,22.5h-9.1l22.2-63.7h9.6l22.2,63.7H90.2z M72.4,26.6l-7.3,20.8h14.5L72.4,26.6z"
	/>
<path class="st0" d="M144.2,77.9h-11.3l-18.3-21.8v21.8h-8.4V14.2h16.4c2.8,0,5.5,0.5,7.9,1.6c2.5,1.1,4.6,2.5,6.5,4.5
	c1.9,2,3.3,4.2,4.3,6.8c1,2.5,1.5,5.2,1.5,8c0,2.7-0.4,5.2-1.3,7.6c-0.9,2.4-2.2,4.5-3.8,6.3c-1.7,1.9-3.6,3.4-5.9,4.6
	c-2.2,1.2-4.6,1.9-7,2.2L144.2,77.9z M114.5,22.8v24.4h8c1.6,0,3.1-0.3,4.6-1c1.5-0.6,2.8-1.5,3.8-2.6c1.1-1.2,1.9-2.5,2.5-3.9
	c0.6-1.5,0.9-3,0.9-4.7c0-3.3-1.2-6.1-3.5-8.6c-1.1-1.1-2.4-2-3.8-2.6c-1.5-0.6-3-1-4.6-1H114.5z"/>
<path class="st0" d="M169.6,75.9c-3.9-1.6-7.3-4-10.2-7c-2.9-2.9-5.2-6.4-6.9-10.3c-1.7-3.9-2.5-8.1-2.5-12.4
	c0-4.4,0.8-8.5,2.4-12.3c1.6-3.9,4-7.3,7-10.3c2.9-2.9,6.4-5.2,10.2-6.9c3.9-1.7,8-2.5,12.3-2.5c4.4,0,8.5,0.8,12.4,2.5
	c3.9,1.7,7.3,4,10.3,6.9c2.9,2.9,5.2,6.4,6.9,10.3c1.7,3.9,2.5,8,2.5,12.4c0,4.4-0.8,8.5-2.5,12.4c-1.7,3.9-4,7.4-6.9,10.3
	c-2.9,2.9-6.4,5.2-10.3,6.9c-3.9,1.7-8,2.5-12.4,2.5C177.5,78.4,173.4,77.6,169.6,75.9 M172.9,24.7c-2.8,1.2-5.4,2.9-7.5,5
	c-2.2,2.2-3.9,4.7-5,7.5c-1.2,2.8-1.8,5.8-1.8,9c0,3.2,0.6,6.3,1.8,9.2c1.2,2.9,2.9,5.4,5,7.5c2.2,2.2,4.7,3.9,7.5,5
	c2.8,1.2,5.8,1.8,9,1.8c3.1,0,6.1-0.6,9-1.8c2.8-1.2,5.4-2.9,7.5-5c2.1-2.1,3.8-4.6,5-7.5c1.2-2.9,1.8-6,1.8-9.2
	c0-3.1-0.6-6.1-1.8-9c-1.2-2.8-2.9-5.4-5-7.5c-2.2-2.2-4.7-3.9-7.5-5c-2.8-1.2-5.8-1.8-9-1.8C178.8,22.9,175.8,23.5,172.9,24.7"/>
<polygon class="st0" points="222.6,77.9 222.6,14.1 230.9,14.1 230.9,69.3 250.1,69.3 250.1,77.9 "/>
<polygon class="st0" points="332.2,77.8 322.5,77.8 300.5,14 309.6,14 327.4,65.3 345.3,14 354.3,14 "/>
<polygon class="st0" points="362.5,77.9 362.5,14.1 397.4,14.1 397.4,22.7 370.8,22.7 370.8,42.1 388.7,42.1 388.7,50 370.8,50 
	370.8,69.3 397.4,69.3 397.4,77.9 "/>
<path class="st0" d="M445.1,77.9h-11.3l-18.3-21.8v21.8H407V14.2h16.4c2.8,0,5.5,0.5,7.9,1.6c2.5,1.1,4.6,2.5,6.5,4.5
	c1.9,2,3.3,4.2,4.3,6.8c1,2.5,1.5,5.2,1.5,8c0,2.7-0.4,5.2-1.3,7.6c-0.9,2.4-2.2,4.5-3.8,6.3c-1.7,1.9-3.6,3.4-5.9,4.6
	c-2.2,1.2-4.6,1.9-7,2.2L445.1,77.9z M415.5,22.8v24.4h8c1.6,0,3.1-0.3,4.6-1c1.5-0.6,2.8-1.5,3.8-2.6c1.1-1.2,1.9-2.5,2.5-3.9
	c0.6-1.5,0.9-3,0.9-4.7c0-3.3-1.2-6.1-3.5-8.6c-1.1-1.1-2.4-2-3.8-2.6c-1.5-0.6-3-1-4.6-1H415.5z"/>
<path class="st0" d="M453.8,77.9V14h16.5c4.3,0,8.4,0.8,12.2,2.4c3.8,1.6,7.2,3.9,10.2,6.9c2.9,3,5.1,6.4,6.8,10.3
	c1.6,3.9,2.4,8,2.4,12.3c0,4.4-0.8,8.5-2.4,12.3c-1.6,3.9-3.9,7.3-6.8,10.2c-2.9,3-6.3,5.3-10.2,7c-3.8,1.6-7.9,2.4-12.2,2.4H453.8z
	 M462.4,22.6v46.7h7.9c3.1,0,6-0.6,8.9-1.8c2.8-1.2,5.3-2.9,7.4-5c2.1-2.2,3.8-4.7,4.9-7.5c1.2-2.8,1.8-5.8,1.8-9
	c0-3.1-0.6-6.1-1.8-9c-1.2-2.8-2.8-5.4-4.9-7.5c-2.1-2.1-4.6-3.8-7.4-5c-2.8-1.2-5.8-1.8-8.9-1.8H462.4z"/>
<polygon class="st0" points="510.5,77.9 510.5,14.1 545.4,14.1 545.4,22.7 518.9,22.7 518.9,42.1 536.7,42.1 536.7,50 518.9,50 
	518.9,69.3 545.4,69.3 545.4,77.9 "/>
</svg>
