<?xml version="1.0" encoding="utf-8"?>
<!-- Generator: Adobe Illustrator 24.2.0, SVG Export Plug-In . SVG Version: 6.00 Build 0)  -->
<svg version="1.1" id="Camada_1" xmlns="http://www.w3.org/2000/svg" xmlns:xlink="http://www.w3.org/1999/xlink" x="0px" y="0px"
	 viewBox="0 0 474 176" style="enable-background:new 0 0 474 176;" xml:space="preserve">
<style type="text/css">
	.st0{fill:#13A538;}
	.st1{fill:#005D9A;}
	.st2{fill:#1D71B8;}
	.st3{fill:#FFFFFF;}
	.st4{fill:#9D9D9C;}
	.st5{fill:#3AAA35;}
	.st6{fill:#95C11F;}
	.st7{fill:#13A538;stroke:#13A538;stroke-width:0.5;stroke-linecap:round;stroke-linejoin:round;stroke-miterlimit:10;}
	.st8{fill:#FFFFFF;stroke:#13A538;stroke-width:0.5;stroke-linecap:round;stroke-linejoin:round;stroke-miterlimit:10;}
</style>
<polygon class="st0" points="198.7,15.6 198.7,37.4 219.3,37.4 219.3,47.3 198.7,47.3 198.7,78.9 189.3,78.9 189.3,5.7 229.3,5.7 
	229.3,15.6 "/>
<path class="st0" d="M276.7,78.9l-9-25.8h-22.9l-9,25.8h-10.5l25.4-73.1h11l25.4,73.1H276.7z M256.3,20l-8.4,23.9h16.6L256.3,20z"/>
<path class="st0" d="M338.6,78.9h-13l-21-25v25h-9.7V5.8h18.8c3.2,0,6.3,0.6,9.1,1.8c2.8,1.2,5.3,2.9,7.4,5.1c2.1,2.3,3.8,4.9,5,7.8
	c1.2,2.9,1.8,6,1.8,9.2c0,3.1-0.5,6-1.5,8.7c-1,2.7-2.5,5.1-4.4,7.3c-1.9,2.1-4.1,3.9-6.7,5.2c-2.6,1.4-5.2,2.2-8,2.5L338.6,78.9z
	 M304.6,15.7v28h9.1c1.8,0,3.6-0.4,5.3-1.1c1.7-0.7,3.2-1.7,4.4-3c1.2-1.3,2.2-2.8,2.9-4.5c0.7-1.7,1-3.5,1-5.4c0-3.7-1.3-7-4-9.9
	c-1.2-1.2-2.7-2.2-4.4-3c-1.7-0.7-3.4-1.1-5.3-1.1H304.6z"/>
<path class="st0" d="M367.7,76.6c-4.4-1.9-8.3-4.5-11.7-8c-3.4-3.4-6-7.3-7.9-11.8c-1.9-4.5-2.9-9.3-2.9-14.3c0-5,0.9-9.7,2.8-14.1
	c1.9-4.4,4.5-8.4,8-11.8c3.4-3.4,7.3-6,11.7-7.9c4.4-1.9,9.1-2.9,14.1-2.9c5,0,9.7,1,14.2,2.9c4.5,1.9,8.4,4.5,11.8,7.9
	c3.4,3.4,6,7.3,7.9,11.8c1.9,4.5,2.9,9.2,2.9,14.2c0,5-1,9.7-2.9,14.3c-1.9,4.5-4.5,8.5-7.9,11.8c-3.4,3.4-7.3,6-11.8,7.9
	c-4.5,1.9-9.2,2.9-14.2,2.9C376.8,79.4,372.1,78.5,367.7,76.6 M371.5,17.9c-3.3,1.4-6.1,3.3-8.6,5.8c-2.5,2.5-4.4,5.4-5.8,8.6
	c-1.4,3.3-2,6.7-2,10.3c0,3.7,0.7,7.2,2.1,10.5c1.4,3.3,3.3,6.2,5.7,8.6c2.5,2.5,5.4,4.4,8.6,5.8c3.3,1.4,6.7,2,10.3,2
	c3.6,0,7-0.7,10.3-2c3.3-1.4,6.1-3.3,8.6-5.8c2.4-2.4,4.3-5.3,5.7-8.6c1.4-3.3,2.1-6.8,2.1-10.5c0-3.6-0.7-7-2-10.3
	c-1.4-3.3-3.3-6.1-5.8-8.6c-2.5-2.5-5.4-4.4-8.6-5.8c-3.3-1.4-6.7-2-10.3-2C378.2,15.8,374.8,16.5,371.5,17.9"/>
<polygon class="st0" points="428.5,78.9 428.5,5.7 438,5.7 438,69 460,69 460,78.9 "/>
<polygon class="st0" points="225.7,171.1 214.6,171.1 189.3,97.9 199.8,97.9 220.2,156.8 240.7,97.9 251,97.9 "/>
<polygon class="st0" points="260.4,171.2 260.4,98 300.4,98 300.4,107.9 269.9,107.9 269.9,130.1 290.4,130.1 290.4,139.1 
	269.9,139.1 269.9,161.2 300.4,161.2 300.4,171.2 "/>
<path class="st0" d="M355.1,171.2h-13l-21-25v25h-9.7V98.1h18.8c3.2,0,6.3,0.6,9.1,1.8c2.8,1.2,5.3,2.9,7.4,5.1
	c2.1,2.3,3.8,4.9,5,7.8c1.2,2.9,1.8,6,1.8,9.2c0,3.1-0.5,6-1.5,8.7c-1,2.7-2.5,5.1-4.4,7.3c-1.9,2.1-4.1,3.9-6.7,5.2
	c-2.6,1.4-5.2,2.2-8,2.5L355.1,171.2z M321.1,108v28h9.1c1.8,0,3.6-0.4,5.3-1.1c1.7-0.7,3.2-1.7,4.4-3c1.2-1.3,2.2-2.8,2.9-4.5
	c0.7-1.7,1-3.5,1-5.4c0-3.7-1.3-7-4-9.9c-1.2-1.2-2.7-2.2-4.4-3c-1.7-0.7-3.5-1.1-5.3-1.1H321.1z"/>
<path class="st0" d="M365,171.2V97.9h18.9c4.9,0,9.6,0.9,14,2.8c4.4,1.9,8.3,4.5,11.7,7.9c3.3,3.4,5.9,7.4,7.8,11.8
	c1.9,4.4,2.8,9.2,2.8,14.1c0,5-0.9,9.7-2.8,14.1c-1.9,4.4-4.5,8.3-7.8,11.7c-3.4,3.4-7.3,6.1-11.7,8c-4.4,1.9-9.1,2.8-14,2.8H365z
	 M374.9,107.8v53.5h9c3.5,0,6.9-0.7,10.2-2.1c3.3-1.4,6.1-3.3,8.5-5.7c2.4-2.5,4.3-5.4,5.7-8.6c1.4-3.3,2-6.7,2-10.3
	c0-3.6-0.7-7-2-10.3c-1.4-3.3-3.2-6.1-5.7-8.6c-2.4-2.4-5.3-4.3-8.5-5.7c-3.3-1.4-6.7-2.1-10.2-2.1H374.9z"/>
<polygon class="st0" points="430,171.2 430,98 470.1,98 470.1,107.9 439.6,107.9 439.6,130.1 460.1,130.1 460.1,139.1 439.6,139.1 
	439.6,161.2 470.1,161.2 470.1,171.2 "/>
<g>
	<path class="st1" d="M19.3,164.1c0,3.1,2.5,5.7,5.7,5.7h142.3c1.9,0,3.5-1.4,3.8-3.2L19.3,85.7V164.1z"/>
	<path class="st2" d="M167.3,4.5H62.9h-6.7c-20.4,0-36.9,16.5-36.9,36.9v7.7v33.1l151.8-71.1V8.4C171.1,6.3,169.4,4.5,167.3,4.5z"/>
	<path class="st0" d="M171.1,166.6V166C171.1,166.2,171.1,166.4,171.1,166.6L171.1,166.6z"/>
</g>
<g>
	<path class="st3" d="M-135.1,67.8C-135.1,67.8-135.1,67.8-135.1,67.8C-135.1,67.8-135.1,67.8-135.1,67.8"/>
	<path class="st3" d="M-134.4,66.1c-0.2,0-0.4,0-0.7,0c0,0,0,0,0,0C-134.8,66.1-134.6,66.1-134.4,66.1
		C-134.4,66.1-134.4,66.1-134.4,66.1"/>
	<path class="st3" d="M-134.4,66.1c0,0,0.1,0,0.1,0C-134.1,66.1-134.3,66.1-134.4,66.1"/>
	<path class="st4" d="M-135.1,72.3V73C-135.1,72.7-135.1,72.5-135.1,72.3"/>
	<path class="st5" d="M-137.9,68.3c0.1,0,0.1,0,0.2,0c0.1,0,0.1,0,0.2,0C-137.6,68.2-137.7,68.2-137.9,68.3
		C-137.9,68.3-137.9,68.3-137.9,68.3"/>
	<path class="st5" d="M-135.6,69.8L-135.6,69.8c-0.2,0-0.4,0-0.6,0l0,0L-135.6,69.8z"/>
	<path class="st5" d="M-138,68.3c0.1,0,0.2,0,0.3-0.1C-137.8,68.2-137.8,68.3-138,68.3C-137.9,68.3-138,68.3-138,68.3"/>
	<path class="st4" d="M-136.2,68.1C-136.2,68.1-136.2,68.1-136.2,68.1c0,0-0.1,0-0.2,0C-136.4,68.1-136.3,68.1-136.2,68.1"/>
	<path class="st4" d="M-137.3,68.2c-0.1,0-0.1,0-0.2,0C-137.5,68.2-137.4,68.2-137.3,68.2"/>
	<path class="st4" d="M-137.2,68.2c-0.1,0-0.1,0-0.2,0C-137.3,68.2-137.2,68.2-137.2,68.2"/>
	<polygon class="st0" points="-123.8,63.4 -138.7,70.3 -123.8,78.2 	"/>
	<polyline class="st4" points="-131.5,68.2 -131.5,68.2 -131.5,68.2 -131.5,68.2 	"/>
	<polygon class="st4" points="-131.5,68.2 -131.5,68.2 -131.5,68.2 	"/>
	<polyline class="st6" points="-135.6,69.8 -135.7,69.8 -135.6,69.8 	"/>
	<path class="st3" d="M-132,68.4L-132,68.4c0,0,0-0.1,0-0.1c-0.6-0.2-1.5-0.3-2.6-0.3c0,0-0.1,0-0.1,0c0,0,0,0-0.1,0c0,0,0,0,0,0
		c0,0,0,0,0,0c0,0,0,0,0,0c0,0,0,0,0,0c-0.3,0-0.6,0-0.8,0l0,1.7c0,0,0,0,0.1,0c0.1,0,0.4,0,0.5,0c0,0,0,0,0,0c0.1,0,0.1,0,0.2,0
		c0.1,0,0.1,0,0.2,0c1,0,2,0.1,2.7,0.1C-132,69.9-132,68.9-132,68.4"/>
	<path class="st7" d="M-137,68.1c0.1,0,0.2,0,0.3,0c0.1,0,0.2,0,0.3,0c0.1,0,0.2,0,0.3,0c0.2,0,0.3,0,0.5,0c0.2,0,0.4,0,0.6,0
		c0.1,0,0.2,0,0.3,0c0,0,0.1,0,0.1,0c1.1,0,2.3,0.2,2.9,0.3c0.2-0.1,0.3-0.1,0.3-0.2c0,0,0,0,0,0v0c0-0.2-1.6-0.4-3.6-0.4
		c0,0,0,0,0,0v0l0-1.7c-0.2,0-0.3,0-0.5,0c0.2,0,0.3,0,0.5,0c0,0,0,0,0,0c0,0,0,0,0,0c0.2,0,0.5,0,0.7,0c-0.6-0.1-1.1-0.7-1.1-1.3
		c0-0.8,0.6-1.4,1.4-1.4c0.3,0,0.6,0.1,0.8,0.2c-0.5-0.4-1.1-0.6-1.8-0.6c-1.7,0-3,1.4-3,3.1c0,0,0,0,0,0h0v0.2h0
		c0.4-0.1,1-0.1,1.8-0.2c-0.7,0-1.3,0.1-1.8,0.2c-0.4,0.1-0.6,0.1-0.6,0.2h0v1.7c0,0,0,0,0,0c0,0,0,0,0,0c0,0.1,0.1,0.1,0.4,0.2
		c0.1,0,0.1,0,0.2,0c0,0,0-0.1,0-0.1c0,0,0,0,0,0c0,0,0,1.6,0,1.6c0,0,0,0,0,0c-0.9,0.1-1.5,0.2-1.5,0.4v4.3c0,0,0,0,0-0.1
		c0,0,0,0,0,0c0,0.2,0.5,0.3,1.4,0.4v-0.5c0,0,0.1,0,0.1,0c0,0-0.1,0-0.1,0l0,0.8v2.9h2.5v-3.8c-0.2,0-0.3,0-0.5,0c0,0,0,0-0.1,0
		c-0.2,0-0.3,0-0.5,0c0.2,0,0.3,0,0.5,0c0,0,0,0,0.1,0c0.2,0,0.3,0,0.5,0c0.2,0,0.4,0,0.6,0c0,0,0.1,0,0.1,0c0,0,0.1,0,0.1,0
		c1.1,0,2.1,0.1,2.9,0.2c0,0,0.1,0,0.1,0l0,0.5c0.7-0.1,1.2-0.2,1.2-0.4c0-0.3-2-0.6-4.5-0.6v0c0,0,0,0,0,0c0-0.5,0-0.5,0-1.1
		c0,0,0,0,0-0.1v-0.7c0-1.1,0-2.4,0-2.5c-0.2,0-0.4,0-0.5,0c0,0,0,0,0,0l0-1.2l0-0.6c-0.2,0-0.3,0-0.5,0c0,0,0,0-0.1,0
		c-0.1,0-0.2,0-0.2,0c-0.1,0-0.2,0-0.3,0C-136.8,68.1-136.9,68.1-137,68.1 M-135.7,69.8L-135.7,69.8l-0.3,0
		C-135.8,69.8-135.7,69.8-135.7,69.8z M-135.7,74.1c0.2,0,0.4,0,0.5,0C-135.4,74.1-135.5,74.1-135.7,74.1z"/>
	<g>
		<path class="st8" d="M-135.5,64.8c0,0.7,0.5,1.2,1.1,1.3c0.1,0,0.1,0,0.2,0c0.1,0,2.1,0.1,2.1,0.1c0-0.9-0.4-1.9-1-2.4
			c-0.1-0.1-0.2-0.2-0.3-0.2c-0.2-0.1-0.5-0.2-0.8-0.2C-134.8,63.4-135.5,64-135.5,64.8"/>
	</g>
	<path class="st8" d="M-135.1,67.8c0,0,0.5,0,1,0c1.1,0,2.5,0.2,2.6,0.4v-1.7h0c0-0.1-0.2-0.2-0.5-0.2c0,0,0,0,0,0v0h0
		c-0.1,0-0.2,0-0.3,0h0c-0.4-0.1-0.9-0.1-1.6-0.1c-0.1,0-0.2,0-0.3,0c0,0-0.1,0-0.1,0c-0.2,0-0.5,0-0.7,0c0,0,0,0,0,0c0,0,0,0,0,0
		L-135.1,67.8z"/>
	<path class="st8" d="M-135.1,72.3c0,0.2,0,0.5,0,0.7v1.1c0,0,0,0,0,0c2.5,0,4.5,0.2,4.5,0.6v-4.3c0-0.2-0.6-0.3-1.5-0.4
		c-0.8-0.1-1.7-0.2-2.8-0.1c-0.1,0-0.1,0-0.2,0V72.3z"/>
	<path class="st8" d="M-131.8,78.2l0-2.9l0-0.3l0,0l0-0.5c0,0-0.1,0-0.1,0c-0.8-0.1-1.8-0.2-2.9-0.2c0,0-0.1,0-0.1,0
		c0,0-0.1,0-0.1,0c-0.2,0-0.4,0-0.6,0v3.8L-131.8,78.2z"/>
</g>
<g>
	<g>
		<path class="st3" d="M-116.2,67.8C-116.2,67.8-116.2,67.8-116.2,67.8C-116.2,67.8-116.2,67.8-116.2,67.8"/>
	</g>
	<g>
		<path class="st3" d="M-115.5,66.2c-0.2,0-0.4,0-0.7,0c0,0,0,0,0,0C-115.9,66.1-115.7,66.1-115.5,66.2
			C-115.5,66.2-115.5,66.2-115.5,66.2"/>
	</g>
	<g>
		<path class="st3" d="M-115.5,66.2c0,0,0.1,0,0.1,0C-115.2,66.2-115.4,66.2-115.5,66.2"/>
	</g>
	<g>
		<path class="st4" d="M-116.2,72.3V73C-116.2,72.8-116.2,72.6-116.2,72.3"/>
	</g>
	<g>
		<polygon class="st0" points="-105,63.4 -119.8,70.3 -105,78.2 		"/>
	</g>
	<g>
		<polyline class="st4" points="-112.6,68.3 -112.6,68.3 -112.6,68.3 -112.6,68.3 		"/>
	</g>
	<g>
		<polygon class="st4" points="-112.6,68.3 -112.6,68.3 -112.6,68.3 		"/>
	</g>
	<g>
		<polyline class="st6" points="-116.7,69.8 -116.7,69.8 -116.7,69.8 		"/>
	</g>
	<g>
		<path class="st3" d="M-113.1,68.5L-113.1,68.5c0,0,0-0.1,0-0.1c-0.6-0.2-1.5-0.3-2.6-0.3c0,0-0.1,0-0.1,0c0,0,0,0-0.1,0
			c0,0,0,0,0,0c0,0,0,0,0,0c0,0,0,0,0,0c0,0,0,0,0,0c-0.3,0-0.6,0-0.8,0l0,1.7c0,0,0,0,0.1,0c0.1,0,0.4,0,0.5,0c0,0,0,0,0,0
			c0.1,0,0.1,0,0.2,0c0.1,0,0.1,0,0.2,0c1,0,2,0.1,2.7,0.1C-113.1,70-113.1,69-113.1,68.5"/>
	</g>
	<g>
		<path class="st3" d="M-116.2,67.8c0,0,0.5,0,1,0c1.1,0,2.5,0.2,2.6,0.4v-1.7h0c0-0.1-0.2-0.2-0.5-0.2c0,0,0,0,0,0v0h0
			c-0.1,0-0.2,0-0.3,0h0c-0.4-0.1-0.9-0.1-1.6-0.1c-0.1,0-0.2,0-0.3,0c0,0-0.1,0-0.1,0c-0.2,0-0.5,0-0.7,0c0,0,0,0,0,0c0,0,0,0,0,0
			L-116.2,67.8z"/>
	</g>
	<path class="st3" d="M-111.7,70.4v4.3c0-0.3-2-0.6-4.5-0.6c0,0-1,0-1,0V73c0-0.2,0-0.5,0-0.7v-2.5
		C-117.2,69.8-113.5,69.6-111.7,70.4z"/>
	<path class="st0" d="M-111.4,70.4c0-0.1-0.1-0.2-0.1-0.2c-1.3-0.6-3.7-0.7-4.9-0.6l0-0.9l0-0.3c0.1,0,0.1,0,0.2,0l0.5,0
		c1.1,0,2,0.1,2.6,0.3l0.2,0.1c0,0,0.1,0,0.1,0c0.1,0,0.4-0.1,0.5-0.3c0,0,0-0.1,0-0.1l0-1.7c0-0.3-0.3-0.4-0.6-0.4
		c0-0.9-0.4-1.9-1-2.4c-0.1-0.1-0.2-0.2-0.3-0.2c0,0,0,0,0,0c0,0,0,0,0,0c0,0,0,0,0,0c0,0,0,0,0,0c-0.6-0.4-1.2-0.6-1.9-0.6
		c-1.8,0-3.3,1.5-3.3,3.3v0c-0.3,0.1-0.5,0.2-0.5,0.4l0,1.7c0,0.3,0.4,0.4,0.5,0.4c0,0,0,0,0,0v1.1c-1.2,0.2-1.5,0.4-1.5,0.6v4.3
		c0,0.1,0,0.1,0.1,0.2c0.1,0.2,0.5,0.3,1.4,0.5v3c0,0.1,0.1,0.2,0.2,0.2h2.5l3.9,0c0.1,0,0.2-0.1,0.2-0.2l0-2.9l0-0.1
		c1-0.2,1.2-0.3,1.2-0.6c0,0,0,0,0,0V70.4z M-111.9,70.6v3.7c-0.9-0.3-2.7-0.4-4-0.4v-1.6c0-0.9,0-1.9,0-2.3
		C-114.8,70-113,70.1-111.9,70.6z M-112.9,67.8c-0.2-0.1-0.5-0.1-0.9-0.2c-0.4-0.1-1-0.1-1.7-0.1c-0.2,0-0.4,0-0.6,0l0-1.2
		c0.2,0,0.3,0,0.5,0c0,0,0,0,0,0c0,0,0,0,0.1,0c0.1,0,0.1,0,0.1,0c0.1,0,0.8,0.1,1.5,0.1c0.1,0,0.3,0,0.4,0c0.1,0,0.2,0,0.3,0
		c0.2,0,0.3,0.1,0.3,0.1V67.8z M-113.4,66c-0.1,0-0.2,0-0.4,0c-0.2,0-0.5,0-0.7-0.1l-0.5,0c-0.1,0-0.2,0-0.3,0l-0.1,0c0,0,0,0,0,0
		c-0.4-0.1-0.7-0.4-0.8-0.7c0,0,0,0,0,0c0-0.1-0.1-0.2-0.1-0.3c0-0.6,0.5-1.1,1.2-1.1c0.2,0,0.5,0.1,0.6,0.2
		c0.1,0.1,0.2,0.1,0.2,0.2C-113.8,64.5-113.5,65.3-113.4,66z M-113.2,75l0,3.1l-3.4,0v-3.3C-113.5,74.7-113.2,75-113.2,75z"/>
</g>
<g>
	<g>
		<path class="st3" d="M-82,62.3C-82.1,62.3-82.1,62.3-82,62.3C-82.1,62.3-82.1,62.3-82,62.3"/>
	</g>
	<g>
		<path class="st3" d="M-79.6,56.6c-0.7,0-1.5,0-2.3,0c0,0-0.1,0-0.1,0C-81.2,56.6-80.4,56.6-79.6,56.6
			C-79.6,56.6-79.6,56.6-79.6,56.6"/>
	</g>
	<g>
		<path class="st3" d="M-79.6,56.6c0,0,0.3,0,0.5,0C-78.8,56.6-79.4,56.6-79.6,56.6"/>
	</g>
	<g>
		<path class="st4" d="M-82.1,77.6V80C-82.1,79.2-82.1,78.4-82.1,77.6"/>
	</g>
	<g>
		<polygon class="st0" points="-44,47.1 -94.5,70.8 -44,97.7 		"/>
	</g>
	<g>
		<polyline class="st4" points="-69.9,63.8 -69.9,63.8 -69.9,63.8 -69.9,63.8 		"/>
	</g>
	<g>
		<polygon class="st4" points="-69.9,63.8 -69.9,63.8 -69.9,63.8 		"/>
	</g>
	<g>
		<path class="st6" d="M-84,69.2C-84,69.2-84,69.2-84,69.2C-84,69.2-84,69.2-84,69.2"/>
	</g>
	<g>
		<path class="st3" d="M-71.7,64.6L-71.7,64.6c0-0.1,0-0.3,0-0.4c-1.9-0.6-5.2-0.9-9-0.9c-0.1,0-0.2,0-0.3,0c-0.1,0-0.2,0-0.2,0
			c0,0,0,0,0,0c0,0,0,0,0,0c0,0,0,0,0,0c0,0,0,0,0,0c-0.9,0-1.9,0-2.8,0l0,5.9c0,0,0.1,0,0.2,0c0.3,0,1.2,0,1.8,0c0,0,0,0,0,0
			c0.2,0,0.5,0,0.7,0c0.2,0,0.4,0,0.6,0c3.5,0,6.7,0.2,9.1,0.5C-71.7,69.6-71.7,66.2-71.7,64.6"/>
	</g>
	<g>
		<path class="st3" d="M-82.2,62.3c0,0,1.6,0,3.5,0.1c3.6,0.1,8.7,0.6,8.7,1.4V58h0c0-0.3-0.7-0.6-1.8-0.8c0,0,0,0,0,0v0h0
			c-0.3-0.1-0.6-0.1-0.9-0.2h0c-1.3-0.2-3.2-0.3-5.4-0.5c-0.4,0-0.7,0-1.1,0c-0.2,0-0.3,0-0.5,0c-0.8,0-1.6,0-2.4,0c0,0-0.1,0-0.1,0
			c0,0,0,0,0,0L-82.2,62.3z"/>
	</g>
	<path class="st3" d="M-66.8,71v14.7c0-1-6.9-1.9-15.4-1.9c0,0-3.4,0-3.4,0V80c0-0.7,0-1.6,0-2.4v-8.5C-85.6,69.1-72.8,68.2-66.8,71
		z"/>
	<path class="st0" d="M-65.9,71c0-0.3-0.2-0.6-0.5-0.8c-4.6-2.2-12.7-2.2-16.8-2.1l0-3l0-1.1c0.2,0,0.5,0,0.7,0l1.6,0
		c3.6,0,6.9,0.3,8.8,0.9l0.7,0.2c0.1,0,0.3,0,0.5,0c0.5-0.1,1.4-0.4,1.7-1.1c0-0.1,0.1-0.2,0.1-0.3l0-5.7c0-0.9-0.9-1.2-1.9-1.5
		c-0.1-3.2-1.5-6.4-3.5-8.3c-0.3-0.3-0.6-0.5-1-0.8c0,0,0,0,0,0c0,0,0,0,0,0c0,0,0,0,0,0c0,0,0,0,0,0c-1.9-1.4-4.2-2.2-6.6-2.2
		c-6.2,0-11.2,5.1-11.2,11.4v0c-1,0.2-1.8,0.6-1.9,1.5l0,5.8c0.1,0.9,1.3,1.2,1.8,1.4c0,0,0,0,0,0v3.7c-4.2,0.5-5,1.2-5,2.1v14.7
		c0,0.2,0.1,0.4,0.2,0.5c0.4,0.7,1.6,1.2,4.8,1.6v10.1c0,0.5,0.4,0.9,0.9,0.9h8.5l13.2,0c0.5,0,0.9-0.4,0.9-0.9l0-9.8l0-0.4
		c3.3-0.5,4.1-1.2,4.1-2c0,0,0,0,0,0V71z M-67.6,71.6v12.7c-3-1-9.2-1.3-13.7-1.3v-5.4c0-3.1,0-6.3,0-7.8
		C-77.3,69.8-71.3,70.1-67.6,71.6z M-70.8,62.3c-0.7-0.2-1.6-0.4-2.9-0.5c-1.5-0.2-3.4-0.3-5.7-0.4c-0.7,0-1.4,0-1.9,0l0-4
		c0.6,0,1.1,0,1.6,0c0,0,0,0,0,0c0.1,0,0.2,0,0.2,0c0.2,0,0.4,0,0.5,0c0.2,0,2.6,0.2,4.9,0.3c0.4,0,0.9,0.1,1.3,0.1
		c0.3,0,0.6,0.1,0.9,0.1c0.6,0.1,1,0.2,1.2,0.3V62.3z M-72.7,56.2c-0.5,0-0.8-0.1-1.2-0.1c-0.7-0.1-1.6-0.1-2.5-0.2l-1.6-0.1
		c-0.4,0-0.7,0-1.2,0l-0.4,0c0,0,0,0-0.1,0c-1.3-0.3-2.3-1.2-2.8-2.4c0,0,0-0.1,0-0.2c-0.1-0.4-0.2-0.7-0.2-1.1c0-2.1,1.8-3.8,4-3.8
		c0.8,0,1.5,0.2,2.2,0.6c0.3,0.2,0.6,0.4,0.8,0.7C-74,51-72.9,53.6-72.7,56.2z M-71.8,86.6l0,10.4l-11.5,0V85.7
		C-73.1,85.7-71.8,86.6-71.8,86.6z"/>
</g>
<g>
	<g>
		<path class="st3" d="M54.2,57.7c-0.1,0-0.2,0-0.3,0C53.9,57.7,54.1,57.7,54.2,57.7"/>
	</g>
	<g>
		<path class="st3" d="M61.5,40.3c-2.3-0.1-4.6-0.1-7-0.1c-0.1,0-0.3,0-0.4,0C56.7,40.2,59.2,40.2,61.5,40.3
			C61.6,40.3,61.6,40.3,61.5,40.3"/>
	</g>
	<g>
		<path class="st3" d="M61.5,40.3c0,0,1.1,0,1.6,0.1C64.3,40.4,62.2,40.3,61.5,40.3"/>
	</g>
	<g>
		<path class="st4" d="M53.9,104.8v7.3C53.9,109.8,53.9,107.3,53.9,104.8"/>
	</g>
	<g>
		<polygon class="st0" points="171.1,11.2 15.8,83.9 171.1,166.6 		"/>
	</g>
	<g>
		<path class="st4" d="M91.5,62.3C91.5,62.3,91.5,62.3,91.5,62.3L91.5,62.3C91.5,62.3,91.5,62.3,91.5,62.3"/>
	</g>
	<g>
		<path class="st4" d="M91.5,62.3L91.5,62.3C91.5,62.3,91.5,62.3,91.5,62.3L91.5,62.3z"/>
	</g>
	<g>
		<path class="st6" d="M48,78.8C48,78.8,48,78.8,48,78.8C48,78.8,48,78.8,48,78.8"/>
	</g>
	<g>
		<path class="st6" d="M85.9,64.7L85.9,64.7c0-0.4,0-0.8,0-1.2c-5.9-1.8-16.1-2.9-27.7-2.9c-0.3,0-0.6,0-0.9,0c-0.2,0-0.5,0-0.7,0
			c0,0,0,0,0,0c0,0,0,0,0,0c0,0,0,0,0,0c0,0,0,0,0,0c-2.8,0-5.8,0-8.5,0.1l0,18.1c0.1,0,0.5,0,0.6,0c1,0,3.8,0,5.4,0c0,0,0,0,0,0
			c0.7,0,1.5,0,2.2,0c0.6,0,1.1,0,1.7,0c10.8,0,20.6,0.6,28,1.5C85.9,80.3,85.9,69.7,85.9,64.7"/>
	</g>
	<g>
		<path class="st3" d="M53.8,57.7c0,0,4.9,0,10.8,0.2c11,0.4,26.6,1.9,26.7,4.4V44.7h0c0-0.9-2.1-1.7-5.7-2.5c0,0,0,0,0,0v0h-0.1
			c-0.8-0.2-1.7-0.3-2.7-0.5h0c-4.1-0.6-9.9-0.9-16.5-1.4c-1.1-0.1-2.2-0.1-3.4-0.1c-0.5,0-1,0-1.5,0c-2.4-0.1-4.9-0.1-7.5-0.1
			c-0.1,0-0.2,0-0.3,0c0,0,0,0,0,0L53.8,57.7z"/>
	</g>
	<path class="st3" d="M101.1,84.6v45.1c0-3.2-21.1-5.8-47.2-5.8c0,0-10.5,0-10.6,0v-11.8c0-2.3,0-4.8,0-7.3v-26
		C43.3,78.8,82.6,75.9,101.1,84.6z"/>
	<path class="st0" d="M13.6,63.8l5.7,1.1V78C6.6,79.6,3.9,81.8,3.9,84.6v45.1c0,0.6,0.2,1.2,0.6,1.6c1.1,2,4.8,3.6,14.8,4.9v31
		c0,1.4,1.2,2.6,2.6,2.6H48l40.5,0c1.4,0,2.6-1.2,2.6-2.6l0-30.2l0-1.2c10.2-1.6,12.6-3.5,12.6-6.1c0,0,0,0,0,0V84.6
		c0-1-0.6-1.9-1.5-2.4c-13.6-6.4-37.3-6.8-50.2-6.4c-0.8,0-1.4-0.6-1.4-1.4l0-5.7l0-6.4c0-0.5,0.4-0.9,0.9-0.9
		c0.9-0.1,4.7-0.2,7-0.1c14.9,0.3,21.8,1.8,27.7,3.5l0.9-0.2c0.4,0.1,0.9,2.1,1.4,2c1.5-0.4,4.2-1.2,5.1-3.5c0.1-0.3,0.4-0.6,0.4-1
		l0-17.5c0-2.6-2.8-3.8-5.9-4.6c-0.4-9.7-4.5-19.6-10.8-25.5c-0.9-0.9-1.9-1.7-3-2.5c0,0,0,0,0,0c0,0-0.1,0-0.1-0.1c0,0,0,0,0,0
		c0,0,0,0-0.1,0c-5.9-4.4-13-6.7-20.3-6.7c-19,0-34.5,15.6-34.5,35v0c-3,0.8-5.7,2-5.7,4.5L13.6,63.8 M98.5,88v29.7
		c0,1.7-1.6,3-3.3,2.6c-9.2-2.2-24.1-3.9-36.1-4.1c-1.5,0-2.7-1.2-2.7-2.7v-8.8c0-7.8,0-16.1,0-21.2c0-1.5,1.2-2.7,2.6-2.7
		c12.3-0.3,30,1.4,37.8,4.6C97.8,85.9,98.5,86.9,98.5,88z M58.1,54.1c-0.9-0.1-1.6-0.8-1.6-1.7l0-8.1c0-0.8,0.7-1.5,1.5-1.5
		c1.2,0,2.3,0,3.4,0.1c0,0,0,0,0,0c0.2,0,0.5,0,0.5,0c0.6,0,1.1,0.1,1.5,0c0.7,0,8.1,0.5,15.2,1c1.4,0.1,2.7,0.3,3.8,0.4
		c0.9,0.1,1.8,0.3,2.7,0.5c1,0.2,1.7,0.4,2.3,0.5c0.7,0.2,1.3,0.9,1.3,1.7v9.1c0,0.8-0.8,1.4-1.6,1.3C80,56.5,78.2,55.3,58.1,54.1z"
		/>
	<path class="st1" d="M98.5,134.7c-0.9,0.3-6.3,1.7-7.4,1.9v-1.8c0-1.3-1-2.4-2.3-2.6c-4.6-0.6-13.6-2.6-33.9-2.8
		c-16.7-0.2-27.4,1.8-32.3,2.4c-3.4,0.4-3.3,1.8-3.3,3.7v0.7c-1-0.2-3.5,0-7.9-1.1c-3.1-0.8-7.1-2.6-7.1-4.8c0,0,0,0,0,0v-0.1
		c0.1-3.6,22.2-7.6,49.6-7.7l0,0c0.2,0,0.3,0,0.5,0c27.2,0,42.9,4.1,49.2,8C104.3,131.1,102.1,133.5,98.5,134.7z"/>
	<path class="st3" d="M85.7,139l0.1,23.4c0,1.2-1,2.2-2.2,2.2l-30.8,0c-1.2,0-2.2-1-2.2-2.2v-25.6c0-1.2,1-2.2,2.2-2.2
		c19.7,0,27.8,1.8,30.9,2.2C84.9,136.9,85.7,137.9,85.7,139z"/>
</g>
<path class="st1" d="M86.2,67.7l2.3-0.9c2.3-0.7,3.6-1.5,3.7-2.5c0-0.5-1.2-1.4-3.1-2c-8.7-2.8-25.7-4.8-36.3-4.8
	c-21.7,0-39.1,3.4-39.2,6.3v0.1c0,0,0,0,0,0c0.1,0.8,1.6,1.6,3.3,2.3c0.7,0.3,1.5,0.5,2.3,0.6l0-0.4c0-0.6,0.4-1,0.9-1.2
	c3.8-0.9,15.6-2.8,32.1-2.8c16,0,29.7,2.7,32.9,3.4c0.4,0.1,0.7,0.4,0.7,0.9l0,0.8C85.9,67.7,86.1,67.7,86.2,67.7z"/>
<path class="st3" d="M73.8,18.5c4.4,4.7,8.1,11.8,9,19.3c0.1,0.7-0.5,1.2-1.1,1.2c-0.9-0.1-1.7-0.1-2.5-0.2
	c-2.3-0.2-4.8-0.4-7.6-0.6l-4.9-0.4c-1.6-0.1-6-0.5-7.3-1c-5.2-1.8-6.9-8-7-10.7c-0.4-6.5,4.8-11.8,11.5-11.8
	C68.9,14.4,72,16.6,73.8,18.5z"/>
</svg>
