<svg width="114" height="113" viewBox="0 0 114 113" fill="none" xmlns="http://www.w3.org/2000/svg">
<path d="M113.599 33.2016C113.167 24.1494 111.082 16.1312 104.393 9.52488C97.7297 2.91861 89.6423 0.850999 80.5121 0.397133C71.1022 -0.132378 42.8978 -0.132378 33.4879 0.397133C24.3832 0.825784 16.2957 2.89339 9.60703 9.49967C2.91835 16.1059 0.858338 24.1242 0.400558 33.1763C-0.133519 42.5058 -0.133519 70.469 0.400558 79.7984C0.832906 88.8506 2.91835 96.8689 9.60703 103.475C16.2957 110.081 24.3577 112.149 33.4879 112.603C42.8978 113.132 71.1022 113.132 80.5121 112.603C89.6423 112.174 97.7297 110.107 104.393 103.475C111.056 96.8689 113.142 88.8506 113.599 79.7984C114.134 70.469 114.134 42.531 113.599 33.2016Z" fill="#D9D9D9"/>
<circle cx="31.2143" cy="64.058" r="4.21429" fill="#3E3E3E"/>
<circle cx="81.7856" cy="64.058" r="4.21429" fill="#3E3E3E"/>
<path d="M68 79C68 72.9249 62.8513 68 56.5 68C50.1487 68 45 72.9249 45 79" stroke="#3E3E3E" stroke-width="4" stroke-linecap="round"/>
</svg>
