<svg width="23" height="23" viewBox="0 0 23 23" fill="none" xmlns="http://www.w3.org/2000/svg">
<path d="M20.0938 0.5625H2.90625C2.28465 0.5625 1.68851 0.80943 1.24897 1.24897C0.80943 1.68851 0.5625 2.28465 0.5625 2.90625L0.5625 20.0938C0.5625 20.7154 0.80943 21.3115 1.24897 21.751C1.68851 22.1906 2.28465 22.4375 2.90625 22.4375H9.60791V15.0005H6.53174V11.5H9.60791V8.83203C9.60791 5.79736 11.4146 4.12109 14.1816 4.12109C15.5068 4.12109 16.8926 4.35742 16.8926 4.35742V7.33594H15.3657C13.8613 7.33594 13.3921 8.26953 13.3921 9.22705V11.5H16.7505L16.2134 15.0005H13.3921V22.4375H20.0938C20.7154 22.4375 21.3115 22.1906 21.751 21.751C22.1906 21.3115 22.4375 20.7154 22.4375 20.0938V2.90625C22.4375 2.28465 22.1906 1.68851 21.751 1.24897C21.3115 0.80943 20.7154 0.5625 20.0938 0.5625Z" fill="black"/>
</svg>
