<svg width="25" height="21" viewBox="0 0 25 21" fill="none" xmlns="http://www.w3.org/2000/svg">
<path d="M22.4302 5.408C22.446 5.63007 22.446 5.85219 22.446 6.07426C22.446 12.8477 17.2906 20.6523 7.86802 20.6523C4.96509 20.6523 2.26841 19.8115 0 18.3522C0.412451 18.3997 0.808984 18.4156 1.2373 18.4156C3.63257 18.4156 5.83755 17.6066 7.59834 16.2266C5.3458 16.1789 3.45811 14.7037 2.80771 12.6732C3.125 12.7208 3.44224 12.7525 3.77539 12.7525C4.2354 12.7525 4.69546 12.6891 5.12373 12.5781C2.77603 12.1021 1.01519 10.04 1.01519 7.54951V7.48608C1.69727 7.86679 2.49048 8.10473 3.33115 8.13642C1.95107 7.21635 1.04692 5.64594 1.04692 3.86928C1.04692 2.91752 1.30068 2.04506 1.74487 1.28364C4.26709 4.39277 8.05835 6.42319 12.3096 6.64531C12.2303 6.26459 12.1827 5.86806 12.1827 5.47148C12.1827 2.64785 14.4669 0.347748 17.3064 0.347748C18.7816 0.347748 20.1141 0.9664 21.05 1.96577C22.208 1.7437 23.3184 1.31537 24.302 0.728461C23.9212 1.91821 23.1122 2.91757 22.0494 3.55204C23.0805 3.44106 24.0799 3.15546 24.9999 2.75893C24.302 3.77411 23.4295 4.67827 22.4302 5.408Z" fill="black"/>
</svg>
